<?xml version="1.0" standalone="no"?>
<!DOCTYPE svg PUBLIC "-//W3C//DTD SVG 20010904//EN"
 "http://www.w3.org/TR/2001/REC-SVG-20010904/DTD/svg10.dtd">
<svg version="1.0" xmlns="http://www.w3.org/2000/svg"
 width="700.000000pt" height="700.000000pt" viewBox="0 0 700.000000 700.000000"
 preserveAspectRatio="xMidYMid meet">
<metadata>
Created by potrace 1.11, written by Peter Selinger 2001-2013
</metadata>
<g transform="translate(0.000000,700.000000) scale(0.100000,-0.100000)"
fill="#000000" stroke="none">
<path d="M3295 6964 c-254 -21 -460 -54 -670 -109 -1216 -318 -2162 -1264
-2480 -2480 -80 -306 -109 -539 -109 -875 0 -336 29 -569 109 -875 339 -1298
1395 -2284 2715 -2534 401 -76 879 -76 1280 0 1320 250 2376 1236 2715 2534
80 306 109 539 109 875 0 336 -29 569 -109 875 -200 766 -654 1439 -1288 1909
-492 365 -1058 589 -1672 662 -127 15 -500 26 -600 18z m620 -169 c525 -70
989 -243 1420 -530 198 -131 337 -246 510 -420 530 -529 846 -1171 952 -1935
24 -176 24 -644 0 -820 -75 -539 -245 -993 -532 -1425 -131 -198 -246 -337
-420 -510 -529 -530 -1171 -846 -1935 -952 -176 -24 -644 -24 -820 0 -637 89
-1187 323 -1675 713 -141 113 -386 358 -499 499 -332 415 -564 905 -666 1405
-54 269 -64 369 -64 680 0 311 10 411 64 680 102 500 334 990 666 1405 113
141 358 386 499 499 533 426 1165 676 1850 730 113 9 535 -3 650 -19z"/>
<path d="M2599 5408 c-7 -13 -257 -477 -556 -1032 l-545 -1009 43 -96 c23 -53
45 -99 48 -102 3 -4 229 93 501 215 272 122 496 220 498 217 1 -4 -92 -463
-208 -1021 -115 -558 -210 -1020 -210 -1027 0 -10 31 -13 129 -13 l128 0 65
143 c35 78 377 839 759 1690 382 851 695 1540 697 1530 1 -10 -20 -759 -48
-1664 -27 -906 -50 -1659 -50 -1673 l0 -26 124 0 c109 0 125 2 131 18 3 9 332
872 730 1917 398 1045 727 1908 731 1918 6 16 -2 17 -112 15 l-118 -3 -621
-1630 c-373 -981 -621 -1620 -623 -1605 -3 27 84 2968 93 3143 l5 108 -132 -3
-132 -3 -675 -1503 c-371 -826 -676 -1501 -677 -1499 -1 1 63 321 143 710 81
389 144 710 140 713 -3 4 -49 15 -101 26 l-95 19 -413 -185 c-227 -101 -414
-183 -416 -182 -1 2 226 425 504 942 279 516 509 947 512 956 4 16 -6 18 -116
18 -116 0 -122 -1 -133 -22z"/>
</g>
</svg>
